<?xml version="1.0" standalone="no"?>
<!DOCTYPE svg PUBLIC "-//W3C//DTD SVG 20010904//EN"
 "http://www.w3.org/TR/2001/REC-SVG-20010904/DTD/svg10.dtd">
<svg version="1.0" xmlns="http://www.w3.org/2000/svg"
 width="512.000000pt" height="512.000000pt" viewBox="0 0 512.000000 512.000000"
 preserveAspectRatio="xMidYMid meet">

<g transform="translate(0.000000,512.000000) scale(0.100000,-0.100000)"
fill="#000000" stroke="none">
<path d="M2441 4819 c-247 -26 -467 -129 -649 -303 -187 -179 -295 -385 -338
-641 -68 -416 131 -956 546 -1476 173 -218 417 -471 489 -509 31 -16 111 -16
142 0 109 58 459 448 641 715 520 761 540 1447 56 1911 -145 139 -309 229
-503 278 -57 14 -248 38 -284 35 -9 -1 -54 -6 -100 -10z m236 -849 c137 -60
206 -222 154 -361 -97 -258 -445 -258 -542 0 -89 235 156 464 388 361z"/>
<path d="M663 2490 c-43 -10 -79 -34 -100 -67 -10 -15 -54 -154 -99 -309 l-81
-283 26 -5 c144 -30 3419 -626 3428 -624 7 2 196 154 420 339 225 186 419 346
432 356 l23 19 -67 238 c-38 131 -78 252 -89 269 -12 17 -37 40 -56 51 -34 20
-52 21 -521 24 l-485 3 -66 -93 c-209 -297 -567 -676 -693 -734 -107 -49 -243
-49 -350 0 -126 58 -484 437 -693 734 l-65 92 -466 -1 c-256 -1 -481 -4 -498
-9z"/>
<path d="M3957 982 l-818 -687 883 -3 c486 -2 906 0 935 3 29 4 67 16 85 28
37 25 78 97 78 139 0 28 -327 1188 -339 1200 -3 3 -374 -303 -824 -680z"/>
<path d="M316 1592 c-12 -21 -316 -1108 -316 -1130 0 -37 39 -112 71 -135 45
-32 96 -37 437 -37 l332 0 0 605 0 605 -22 5 c-13 3 -122 23 -243 45 -121 22
-228 42 -237 44 -10 2 -20 1 -22 -2z"/>
<path d="M1080 876 l0 -586 839 0 840 0 420 353 c232 193 417 353 413 354 -4
2 -563 104 -1242 228 -679 124 -1243 228 -1252 231 -17 5 -18 -27 -18 -580z"/>
</g>
</svg>
