<?xml version="1.0" standalone="no"?>
<!DOCTYPE svg PUBLIC "-//W3C//DTD SVG 20010904//EN"
 "http://www.w3.org/TR/2001/REC-SVG-20010904/DTD/svg10.dtd">
<svg version="1.0" xmlns="http://www.w3.org/2000/svg"
 width="512.000000pt" height="512.000000pt" viewBox="0 0 512.000000 512.000000"
 preserveAspectRatio="xMidYMid meet">

<g transform="translate(0.000000,512.000000) scale(0.100000,-0.100000)"
fill="#000000" stroke="none">
<path d="M1143 4939 c-85 -16 -150 -69 -189 -154 -23 -49 -24 -55 -24 -381 0
-225 4 -342 12 -365 32 -94 108 -160 209 -181 45 -9 64 -8 110 5 83 25 132 65
169 140 l31 63 -3 345 c-3 333 -4 345 -25 385 -59 110 -173 166 -290 143z"/>
<path d="M2501 4938 c-83 -19 -145 -70 -183 -153 -23 -49 -23 -57 -23 -385 0
-331 0 -336 24 -387 26 -59 84 -117 140 -141 47 -20 155 -20 202 0 56 24 114
82 140 141 24 51 24 56 24 387 0 329 0 336 -23 386 -53 117 -178 180 -301 152z"/>
<path d="M3873 4939 c-80 -15 -144 -64 -186 -143 -22 -40 -22 -49 -22 -396 l0
-355 29 -53 c36 -64 92 -107 166 -129 129 -38 273 42 318 176 8 23 12 141 12
366 l0 332 -30 60 c-55 110 -167 166 -287 142z"/>
<path d="M440 4234 c-103 -27 -180 -72 -262 -154 -90 -90 -149 -198 -167 -308
-8 -48 -11 -501 -9 -1597 l3 -1530 23 -68 c13 -37 47 -102 75 -145 81 -119
185 -193 334 -239 55 -17 162 -18 2123 -18 1961 0 2068 1 2123 18 149 46 253
120 334 239 28 43 62 108 75 145 l23 68 3 1530 c2 1096 -1 1549 -9 1597 -18
110 -77 218 -167 308 -128 128 -241 170 -454 170 l-128 0 0 -93 c0 -156 -39
-258 -134 -351 -165 -161 -441 -160 -603 2 -95 95 -133 196 -133 355 l0 87
-243 0 -244 0 -6 -107 c-7 -121 -25 -184 -72 -258 -173 -267 -561 -267 -730 0
-47 74 -65 138 -72 258 l-6 107 -244 0 -243 0 0 -87 c0 -159 -38 -260 -133
-355 -162 -162 -438 -163 -603 -2 -95 93 -134 195 -134 351 l0 93 -132 -1
c-82 0 -154 -6 -188 -15z m4026 -955 c73 -13 131 -46 178 -100 70 -82 66 -9
66 -1259 0 -1281 6 -1185 -84 -1276 -93 -92 106 -84 -2066 -84 -2172 0 -1973
-8 -2066 84 -90 91 -84 -5 -84 1276 0 1249 -4 1177 66 1258 45 53 96 84 164
98 75 17 3737 19 3826 3z"/>
<path d="M2964 3191 c-23 -10 -73 -49 -111 -85 l-70 -66 -205 0 -205 0 -54 30
c-178 98 -385 -44 -366 -251 7 -77 43 -137 112 -190 l55 -41 0 -133 c0 -118
-2 -135 -20 -158 -56 -70 -74 -172 -48 -259 26 -88 144 -178 234 -178 90 0
143 34 240 151 36 43 69 79 73 79 4 0 60 -62 123 -137 246 -294 286 -327 398
-327 154 -1 275 133 257 285 -8 65 -27 98 -111 193 -39 44 -116 132 -169 195
l-97 114 0 62 0 62 141 137 c157 154 178 187 179 281 0 146 -109 255 -255 255
-37 0 -76 -8 -101 -19z m161 -176 c17 -16 25 -35 25 -57 0 -30 -22 -55 -215
-248 -118 -118 -215 -219 -215 -223 0 -8 264 -323 407 -484 40 -45 75 -93 78
-106 15 -58 -53 -119 -107 -98 -27 10 -137 131 -365 404 l-131 157 -64 -73
c-36 -39 -97 -111 -136 -159 -93 -111 -112 -119 -163 -69 -48 48 -41 85 33
178 34 43 95 115 135 160 40 45 73 86 73 91 0 12 -225 214 -292 262 -62 44
-73 64 -64 116 8 38 38 64 77 64 43 0 302 -205 370 -293 l22 -28 217 215 c204
203 219 216 254 216 26 0 44 -7 61 -25z"/>
<path d="M830 3018 c-18 -13 -43 -36 -54 -51 -20 -28 -21 -39 -21 -360 0 -315
1 -334 20 -367 12 -21 39 -44 65 -57 43 -22 53 -23 354 -23 293 0 312 1 352
21 26 12 53 36 66 57 23 37 23 41 23 362 0 310 -1 327 -21 360 -11 19 -35 45
-54 57 -33 23 -37 23 -365 23 -328 0 -332 0 -365 -22z"/>
<path d="M3560 3017 c-19 -12 -43 -38 -54 -57 -20 -33 -21 -50 -21 -360 0
-321 0 -325 23 -362 13 -21 40 -45 66 -57 40 -20 59 -21 352 -21 301 0 311 1
354 23 26 13 53 36 65 57 19 33 20 52 20 367 0 321 -1 332 -21 360 -11 15 -36
38 -54 51 -33 22 -37 22 -365 22 -328 0 -332 0 -365 -23z"/>
<path d="M840 1658 c-26 -14 -53 -37 -65 -58 -19 -33 -20 -52 -20 -360 0 -310
1 -327 21 -360 11 -19 35 -45 54 -57 33 -23 37 -23 365 -23 328 0 332 0 365
23 19 12 43 38 54 57 20 33 21 50 21 360 l0 325 -24 39 c-45 72 -63 76 -416
76 -303 0 -312 -1 -355 -22z"/>
<path d="M2215 1666 c-37 -17 -70 -52 -84 -89 -7 -18 -11 -145 -11 -345 0
-461 -29 -432 438 -432 358 0 371 2 415 64 22 31 22 35 22 373 0 329 -1 343
-21 369 -11 15 -33 37 -48 48 -26 20 -42 21 -354 23 -258 2 -333 0 -357 -11z"/>
<path d="M3574 1661 c-25 -12 -50 -33 -65 -57 l-24 -39 0 -325 c0 -310 1 -327
21 -360 11 -19 35 -45 54 -57 33 -23 37 -23 365 -23 328 0 332 0 365 23 19 12
43 38 54 57 20 33 21 50 21 360 0 308 -1 327 -20 360 -12 21 -39 44 -65 58
-43 21 -52 22 -355 22 -281 0 -314 -2 -351 -19z"/>
</g>
</svg>
